<mxfile host="65bd71144e">
    <diagram id="wq6SJmn1VP6EEYiqU1X9" name="Page-1">
        <mxGraphModel dx="3315" dy="1068" grid="1" gridSize="10" guides="1" tooltips="1" connect="1" arrows="1" fold="1" page="1" pageScale="1" pageWidth="850" pageHeight="1100" math="0" shadow="0">
            <root>
                <mxCell id="0"/>
                <mxCell id="1" parent="0"/>
                <mxCell id="5" value="&lt;font style=&quot;font-size: 20px;&quot;&gt;block_1&lt;/font&gt;" style="swimlane;whiteSpace=wrap;html=1;" vertex="1" parent="1">
                    <mxGeometry x="-760" y="60" width="630" height="560" as="geometry"/>
                </mxCell>
                <mxCell id="6" value="users" style="swimlane;childLayout=stackLayout;horizontal=1;startSize=30;horizontalStack=0;rounded=1;fontSize=14;fontStyle=0;strokeWidth=2;resizeParent=0;resizeLast=1;shadow=0;dashed=0;align=center;" vertex="1" parent="5">
                    <mxGeometry x="70" y="50" width="160" height="80" as="geometry"/>
                </mxCell>
                <mxCell id="7" value="ID&#10;" style="align=left;strokeColor=none;fillColor=none;spacingLeft=4;fontSize=12;verticalAlign=top;resizable=0;rotatable=0;part=1;" vertex="1" parent="6">
                    <mxGeometry y="30" width="160" height="50" as="geometry"/>
                </mxCell>
                <mxCell id="8" value="actions" style="swimlane;whiteSpace=wrap;html=1;" vertex="1" parent="5">
                    <mxGeometry x="390" y="50" width="200" height="340" as="geometry"/>
                </mxCell>
                <mxCell id="9" value="action1" style="swimlane;childLayout=stackLayout;horizontal=1;startSize=30;horizontalStack=0;rounded=1;fontSize=14;fontStyle=0;strokeWidth=2;resizeParent=0;resizeLast=1;shadow=0;dashed=0;align=center;" vertex="1" parent="8">
                    <mxGeometry x="20" y="40" width="160" height="80" as="geometry"/>
                </mxCell>
                <mxCell id="10" value="ID&#10;action_datetime_1&#10;action_label_1" style="align=left;strokeColor=none;fillColor=none;spacingLeft=4;fontSize=12;verticalAlign=top;resizable=0;rotatable=0;part=1;" vertex="1" parent="9">
                    <mxGeometry y="30" width="160" height="50" as="geometry"/>
                </mxCell>
                <mxCell id="11" value="action2" style="swimlane;childLayout=stackLayout;horizontal=1;startSize=30;horizontalStack=0;rounded=1;fontSize=14;fontStyle=0;strokeWidth=2;resizeParent=0;resizeLast=1;shadow=0;dashed=0;align=center;" vertex="1" parent="8">
                    <mxGeometry x="20" y="140" width="160" height="80" as="geometry"/>
                </mxCell>
                <mxCell id="12" value="ID&#10;action_datetime_2&#10;action_label_2" style="align=left;strokeColor=none;fillColor=none;spacingLeft=4;fontSize=12;verticalAlign=top;resizable=0;rotatable=0;part=1;" vertex="1" parent="11">
                    <mxGeometry y="30" width="160" height="50" as="geometry"/>
                </mxCell>
                <mxCell id="13" value="action_i" style="swimlane;childLayout=stackLayout;horizontal=1;startSize=30;horizontalStack=0;rounded=1;fontSize=14;fontStyle=0;strokeWidth=2;resizeParent=0;resizeLast=1;shadow=0;dashed=0;align=center;" vertex="1" parent="8">
                    <mxGeometry x="20" y="240" width="160" height="80" as="geometry"/>
                </mxCell>
                <mxCell id="14" value="ID&#10;action_datetime_i&#10;action_label_i" style="align=left;strokeColor=none;fillColor=none;spacingLeft=4;fontSize=12;verticalAlign=top;resizable=0;rotatable=0;part=1;" vertex="1" parent="13">
                    <mxGeometry y="30" width="160" height="50" as="geometry"/>
                </mxCell>
                <mxCell id="15" value="inner join" style="ellipse;whiteSpace=wrap;html=1;aspect=fixed;" vertex="1" parent="5">
                    <mxGeometry x="110" y="210" width="80" height="80" as="geometry"/>
                </mxCell>
                <mxCell id="16" value="" style="endArrow=classic;html=1;exitX=0.5;exitY=1;exitDx=0;exitDy=0;" edge="1" parent="5" source="7" target="15">
                    <mxGeometry width="50" height="50" relative="1" as="geometry">
                        <mxPoint x="270" y="390" as="sourcePoint"/>
                        <mxPoint x="320" y="340" as="targetPoint"/>
                    </mxGeometry>
                </mxCell>
                <mxCell id="17" value="users' actions" style="swimlane;childLayout=stackLayout;horizontal=1;startSize=30;horizontalStack=0;rounded=1;fontSize=14;fontStyle=0;strokeWidth=2;resizeParent=0;resizeLast=1;shadow=0;dashed=0;align=center;" vertex="1" parent="5">
                    <mxGeometry x="70" y="400" width="160" height="140" as="geometry"/>
                </mxCell>
                <mxCell id="18" value="ID&#10;action_datetime_1&#10;action_label_1&#10;action_datetime_2&#10;action_label_2&#10;..." style="align=left;strokeColor=none;fillColor=none;spacingLeft=4;fontSize=12;verticalAlign=top;resizable=0;rotatable=0;part=1;" vertex="1" parent="17">
                    <mxGeometry y="30" width="160" height="110" as="geometry"/>
                </mxCell>
                <mxCell id="19" value="" style="endArrow=classic;html=1;exitX=0.5;exitY=1;exitDx=0;exitDy=0;entryX=0.5;entryY=0;entryDx=0;entryDy=0;" edge="1" parent="5" source="15" target="17">
                    <mxGeometry relative="1" as="geometry">
                        <mxPoint x="240" y="360" as="sourcePoint"/>
                        <mxPoint x="340" y="360" as="targetPoint"/>
                    </mxGeometry>
                </mxCell>
                <mxCell id="20" value="output" style="edgeLabel;resizable=0;html=1;align=center;verticalAlign=middle;" connectable="0" vertex="1" parent="19">
                    <mxGeometry relative="1" as="geometry"/>
                </mxCell>
                <mxCell id="21" value="" style="endArrow=classic;html=1;fontColor=#f0f0f0;entryX=1;entryY=0.5;entryDx=0;entryDy=0;" edge="1" parent="5" target="15">
                    <mxGeometry width="50" height="50" relative="1" as="geometry">
                        <mxPoint x="390" y="250" as="sourcePoint"/>
                        <mxPoint x="530" y="180" as="targetPoint"/>
                    </mxGeometry>
                </mxCell>
                <mxCell id="22" value="&lt;font style=&quot;font-size: 20px;&quot;&gt;statistic&lt;/font&gt;" style="swimlane;whiteSpace=wrap;html=1;startSize=23;" vertex="1" parent="1">
                    <mxGeometry x="-760" y="660" width="1725" height="1990" as="geometry"/>
                </mxCell>
                <mxCell id="23" value="users' actions" style="swimlane;childLayout=stackLayout;horizontal=1;startSize=30;horizontalStack=0;rounded=1;fontSize=14;fontStyle=0;strokeWidth=2;resizeParent=0;resizeLast=1;shadow=0;dashed=0;align=center;" vertex="1" parent="22">
                    <mxGeometry x="290" y="100" width="160" height="180" as="geometry"/>
                </mxCell>
                <mxCell id="24" value="ID&#10;action_label_1&#10;action_datetime_1&#10;year&#10;season&#10;month&#10;week[一年的第几个周]&#10;day&#10;..." style="align=left;strokeColor=none;fillColor=none;spacingLeft=4;fontSize=12;verticalAlign=top;resizable=0;rotatable=0;part=1;" vertex="1" parent="23">
                    <mxGeometry y="30" width="160" height="150" as="geometry"/>
                </mxCell>
                <mxCell id="25" value="block1" style="swimlane;fontStyle=0;childLayout=stackLayout;horizontal=1;startSize=30;horizontalStack=0;resizeParent=1;resizeParentMax=0;resizeLast=0;collapsible=1;marginBottom=0;whiteSpace=wrap;html=1;" vertex="1" parent="22">
                    <mxGeometry x="40" y="110" width="140" height="90" as="geometry"/>
                </mxCell>
                <mxCell id="29" value="" style="endArrow=classic;html=1;entryX=0;entryY=0.5;entryDx=0;entryDy=0;exitX=1;exitY=0.5;exitDx=0;exitDy=0;" edge="1" parent="22" source="25" target="24">
                    <mxGeometry width="50" height="50" relative="1" as="geometry">
                        <mxPoint x="190" y="170" as="sourcePoint"/>
                        <mxPoint x="240" y="120" as="targetPoint"/>
                    </mxGeometry>
                </mxCell>
                <mxCell id="30" value="统计层-2-1" style="swimlane;horizontal=0;whiteSpace=wrap;html=1;" vertex="1" parent="22">
                    <mxGeometry x="30" y="690" width="950" height="250" as="geometry"/>
                </mxCell>
                <mxCell id="31" value="users' action statictic" style="swimlane;childLayout=stackLayout;horizontal=1;startSize=30;horizontalStack=0;rounded=1;fontSize=14;fontStyle=0;strokeWidth=2;resizeParent=0;resizeLast=1;shadow=0;dashed=0;align=center;" vertex="1" parent="30">
                    <mxGeometry x="40" y="70" width="160" height="80" as="geometry"/>
                </mxCell>
                <mxCell id="32" value="year&#10;action_statistic" style="align=left;strokeColor=none;fillColor=none;spacingLeft=4;fontSize=12;verticalAlign=top;resizable=0;rotatable=0;part=1;" vertex="1" parent="31">
                    <mxGeometry y="30" width="160" height="50" as="geometry"/>
                </mxCell>
                <mxCell id="36" value="users' action statictic" style="swimlane;childLayout=stackLayout;horizontal=1;startSize=30;horizontalStack=0;rounded=1;fontSize=14;fontStyle=0;strokeWidth=2;resizeParent=0;resizeLast=1;shadow=0;dashed=0;align=center;" vertex="1" parent="30">
                    <mxGeometry x="225" y="70" width="160" height="90" as="geometry"/>
                </mxCell>
                <mxCell id="37" value="year&#10;season&#10;action_statistic" style="align=left;strokeColor=none;fillColor=none;spacingLeft=4;fontSize=12;verticalAlign=top;resizable=0;rotatable=0;part=1;" vertex="1" parent="36">
                    <mxGeometry y="30" width="160" height="60" as="geometry"/>
                </mxCell>
                <mxCell id="38" value="users' action statictic" style="swimlane;childLayout=stackLayout;horizontal=1;startSize=30;horizontalStack=0;rounded=1;fontSize=14;fontStyle=0;strokeWidth=2;resizeParent=0;resizeLast=1;shadow=0;dashed=0;align=center;" vertex="1" parent="30">
                    <mxGeometry x="410" y="70" width="160" height="100" as="geometry"/>
                </mxCell>
                <mxCell id="39" value="year&#10;season&#10;month&#10;action_statistic" style="align=left;strokeColor=none;fillColor=none;spacingLeft=4;fontSize=12;verticalAlign=top;resizable=0;rotatable=0;part=1;" vertex="1" parent="38">
                    <mxGeometry y="30" width="160" height="70" as="geometry"/>
                </mxCell>
                <mxCell id="40" value="users' action statictic" style="swimlane;childLayout=stackLayout;horizontal=1;startSize=30;horizontalStack=0;rounded=1;fontSize=14;fontStyle=0;strokeWidth=2;resizeParent=0;resizeLast=1;shadow=0;dashed=0;align=center;" vertex="1" parent="30">
                    <mxGeometry x="590" y="70" width="160" height="120" as="geometry"/>
                </mxCell>
                <mxCell id="41" value="year&#10;season&#10;month&#10;week&#10;action_statistic" style="align=left;strokeColor=none;fillColor=none;spacingLeft=4;fontSize=12;verticalAlign=top;resizable=0;rotatable=0;part=1;" vertex="1" parent="40">
                    <mxGeometry y="30" width="160" height="90" as="geometry"/>
                </mxCell>
                <mxCell id="42" value="users' action statictic" style="swimlane;childLayout=stackLayout;horizontal=1;startSize=30;horizontalStack=0;rounded=1;fontSize=14;fontStyle=0;strokeWidth=2;resizeParent=0;resizeLast=1;shadow=0;dashed=0;align=center;" vertex="1" parent="30">
                    <mxGeometry x="770" y="70" width="160" height="135" as="geometry"/>
                </mxCell>
                <mxCell id="43" value="year&#10;season&#10;month&#10;week&#10;day&#10;action_statistic" style="align=left;strokeColor=none;fillColor=none;spacingLeft=4;fontSize=12;verticalAlign=top;resizable=0;rotatable=0;part=1;" vertex="1" parent="42">
                    <mxGeometry y="30" width="160" height="105" as="geometry"/>
                </mxCell>
                <mxCell id="44" value="统计层-2-2" style="swimlane;horizontal=0;whiteSpace=wrap;html=1;" vertex="1" parent="22">
                    <mxGeometry x="30" y="980" width="950" height="230" as="geometry"/>
                </mxCell>
                <mxCell id="45" value="users' action statictic" style="swimlane;childLayout=stackLayout;horizontal=1;startSize=30;horizontalStack=0;rounded=1;fontSize=14;fontStyle=0;strokeWidth=2;resizeParent=0;resizeLast=1;shadow=0;dashed=0;align=center;" vertex="1" parent="44">
                    <mxGeometry x="42" y="60" width="160" height="80" as="geometry"/>
                </mxCell>
                <mxCell id="46" value="year&#10;action_statistic" style="align=left;strokeColor=none;fillColor=none;spacingLeft=4;fontSize=12;verticalAlign=top;resizable=0;rotatable=0;part=1;" vertex="1" parent="45">
                    <mxGeometry y="30" width="160" height="50" as="geometry"/>
                </mxCell>
                <mxCell id="47" value="users' action statictic" style="swimlane;childLayout=stackLayout;horizontal=1;startSize=30;horizontalStack=0;rounded=1;fontSize=14;fontStyle=0;strokeWidth=2;resizeParent=0;resizeLast=1;shadow=0;dashed=0;align=center;" vertex="1" parent="44">
                    <mxGeometry x="227" y="60" width="160" height="90" as="geometry"/>
                </mxCell>
                <mxCell id="48" value="year&#10;season&#10;action_statistic" style="align=left;strokeColor=none;fillColor=none;spacingLeft=4;fontSize=12;verticalAlign=top;resizable=0;rotatable=0;part=1;" vertex="1" parent="47">
                    <mxGeometry y="30" width="160" height="60" as="geometry"/>
                </mxCell>
                <mxCell id="49" value="users' action statictic" style="swimlane;childLayout=stackLayout;horizontal=1;startSize=30;horizontalStack=0;rounded=1;fontSize=14;fontStyle=0;strokeWidth=2;resizeParent=0;resizeLast=1;shadow=0;dashed=0;align=center;" vertex="1" parent="44">
                    <mxGeometry x="412" y="60" width="160" height="100" as="geometry"/>
                </mxCell>
                <mxCell id="50" value="year&#10;season&#10;month&#10;action_statistic" style="align=left;strokeColor=none;fillColor=none;spacingLeft=4;fontSize=12;verticalAlign=top;resizable=0;rotatable=0;part=1;" vertex="1" parent="49">
                    <mxGeometry y="30" width="160" height="70" as="geometry"/>
                </mxCell>
                <mxCell id="51" value="users' action statictic" style="swimlane;childLayout=stackLayout;horizontal=1;startSize=30;horizontalStack=0;rounded=1;fontSize=14;fontStyle=0;strokeWidth=2;resizeParent=0;resizeLast=1;shadow=0;dashed=0;align=center;" vertex="1" parent="44">
                    <mxGeometry x="592" y="60" width="160" height="120" as="geometry"/>
                </mxCell>
                <mxCell id="52" value="year&#10;season&#10;month&#10;week&#10;action_statistic" style="align=left;strokeColor=none;fillColor=none;spacingLeft=4;fontSize=12;verticalAlign=top;resizable=0;rotatable=0;part=1;" vertex="1" parent="51">
                    <mxGeometry y="30" width="160" height="90" as="geometry"/>
                </mxCell>
                <mxCell id="58" value="" style="endArrow=none;dashed=1;html=1;dashPattern=1 3;strokeWidth=2;entryX=0.5;entryY=1;entryDx=0;entryDy=0;exitX=0.5;exitY=0;exitDx=0;exitDy=0;" edge="1" parent="22" source="45" target="37">
                    <mxGeometry width="50" height="50" relative="1" as="geometry">
                        <mxPoint x="550" y="960" as="sourcePoint"/>
                        <mxPoint x="600" y="910" as="targetPoint"/>
                    </mxGeometry>
                </mxCell>
                <mxCell id="59" value="" style="endArrow=none;dashed=1;html=1;dashPattern=1 3;strokeWidth=2;entryX=0.456;entryY=1.014;entryDx=0;entryDy=0;exitX=0.5;exitY=0;exitDx=0;exitDy=0;entryPerimeter=0;" edge="1" parent="22" source="45" target="39">
                    <mxGeometry width="50" height="50" relative="1" as="geometry">
                        <mxPoint x="344" y="1050" as="sourcePoint"/>
                        <mxPoint x="345" y="860" as="targetPoint"/>
                    </mxGeometry>
                </mxCell>
                <mxCell id="60" value="" style="endArrow=none;dashed=1;html=1;dashPattern=1 3;strokeWidth=2;entryX=0.5;entryY=1;entryDx=0;entryDy=0;exitX=0.556;exitY=-0.025;exitDx=0;exitDy=0;exitPerimeter=0;" edge="1" parent="22" source="45" target="41">
                    <mxGeometry width="50" height="50" relative="1" as="geometry">
                        <mxPoint x="344" y="1050" as="sourcePoint"/>
                        <mxPoint x="522.96" y="870.98" as="targetPoint"/>
                    </mxGeometry>
                </mxCell>
                <mxCell id="61" value="" style="endArrow=none;dashed=1;html=1;dashPattern=1 3;strokeWidth=2;entryX=0.5;entryY=1;entryDx=0;entryDy=0;exitX=0.5;exitY=0;exitDx=0;exitDy=0;" edge="1" parent="22" source="45" target="43">
                    <mxGeometry width="50" height="50" relative="1" as="geometry">
                        <mxPoint x="352.96000000000004" y="1048" as="sourcePoint"/>
                        <mxPoint x="710" y="890" as="targetPoint"/>
                    </mxGeometry>
                </mxCell>
                <mxCell id="66" value="统计层-1" style="swimlane;horizontal=0;whiteSpace=wrap;html=1;" vertex="1" parent="22">
                    <mxGeometry x="30" y="320" width="950" height="250" as="geometry"/>
                </mxCell>
                <mxCell id="77" value="运营的客户" style="swimlane;fontStyle=0;childLayout=stackLayout;horizontal=1;startSize=30;horizontalStack=0;resizeParent=1;resizeParentMax=0;resizeLast=0;collapsible=1;marginBottom=0;whiteSpace=wrap;html=1;" vertex="1" parent="66">
                    <mxGeometry x="360" y="70" width="180" height="70" as="geometry"/>
                </mxCell>
                <mxCell id="78" value="&lt;span style=&quot;font-size: 18px;&quot;&gt;运营的客户总人数&lt;/span&gt;" style="text;html=1;align=center;verticalAlign=middle;resizable=0;points=[];autosize=1;strokeColor=none;fillColor=none;fontSize=12;" vertex="1" parent="77">
                    <mxGeometry y="30" width="180" height="40" as="geometry"/>
                </mxCell>
                <mxCell id="116" value="users" style="swimlane;childLayout=stackLayout;horizontal=1;startSize=30;horizontalStack=0;rounded=1;fontSize=14;fontStyle=0;strokeWidth=2;resizeParent=0;resizeLast=1;shadow=0;dashed=0;align=center;" vertex="1" parent="66">
                    <mxGeometry x="80" y="70" width="160" height="80" as="geometry"/>
                </mxCell>
                <mxCell id="117" value="ID&#10;" style="align=left;strokeColor=none;fillColor=none;spacingLeft=4;fontSize=12;verticalAlign=top;resizable=0;rotatable=0;part=1;" vertex="1" parent="116">
                    <mxGeometry y="30" width="160" height="50" as="geometry"/>
                </mxCell>
                <mxCell id="118" value="" style="endArrow=classic;html=1;fontSize=12;exitX=1;exitY=0.25;exitDx=0;exitDy=0;entryX=-0.015;entryY=0.335;entryDx=0;entryDy=0;entryPerimeter=0;" edge="1" parent="66" source="117" target="78">
                    <mxGeometry width="50" height="50" relative="1" as="geometry">
                        <mxPoint x="240" y="120" as="sourcePoint"/>
                        <mxPoint x="350" y="113" as="targetPoint"/>
                    </mxGeometry>
                </mxCell>
                <mxCell id="79" value="" style="endArrow=none;dashed=1;html=1;fontSize=18;entryX=0.5;entryY=1;entryDx=0;entryDy=0;exitX=0.5;exitY=0;exitDx=0;exitDy=0;fillColor=#ffcd28;gradientColor=#ffa500;strokeColor=#d79b00;" edge="1" parent="22" source="47" target="39">
                    <mxGeometry width="50" height="50" relative="1" as="geometry">
                        <mxPoint x="450" y="930" as="sourcePoint"/>
                        <mxPoint x="500" y="880" as="targetPoint"/>
                    </mxGeometry>
                </mxCell>
                <mxCell id="80" value="" style="endArrow=none;dashed=1;html=1;fontSize=18;entryX=0.5;entryY=1;entryDx=0;entryDy=0;exitX=0.5;exitY=0;exitDx=0;exitDy=0;fillColor=#ffcd28;gradientColor=#ffa500;strokeColor=#d79b00;" edge="1" parent="22" source="47" target="41">
                    <mxGeometry width="50" height="50" relative="1" as="geometry">
                        <mxPoint x="347" y="1050" as="sourcePoint"/>
                        <mxPoint x="530" y="870" as="targetPoint"/>
                    </mxGeometry>
                </mxCell>
                <mxCell id="81" value="" style="endArrow=none;dashed=1;html=1;fontSize=18;entryX=0.5;entryY=1;entryDx=0;entryDy=0;exitX=0.5;exitY=0;exitDx=0;exitDy=0;fillColor=#ffcd28;gradientColor=#ffa500;strokeColor=#d79b00;" edge="1" parent="22" source="47" target="43">
                    <mxGeometry width="50" height="50" relative="1" as="geometry">
                        <mxPoint x="347" y="1050" as="sourcePoint"/>
                        <mxPoint x="710" y="890" as="targetPoint"/>
                    </mxGeometry>
                </mxCell>
                <mxCell id="85" value="action_statistic" style="swimlane;whiteSpace=wrap;html=1;fontSize=18;" vertex="1" parent="22">
                    <mxGeometry x="1010" y="690" width="500" height="520" as="geometry"/>
                </mxCell>
                <mxCell id="88" value="&lt;font style=&quot;font-size: 20px;&quot;&gt;&lt;b&gt;统计量-2-1&lt;/b&gt;&lt;/font&gt;&lt;br&gt;提款金额的统计指标：&lt;br&gt;&lt;blockquote style=&quot;margin: 0 0 0 40px; border: none; padding: 0px;&quot;&gt;提款金额&lt;br&gt;平均提款金额 = 提款金额/提款人数&lt;br&gt;人产 = 提款金额/运营的客户总人数&lt;br&gt;百产 = 提款金额/运营的客户总人数 * 100&lt;/blockquote&gt;&lt;br&gt;&lt;font style=&quot;font-size: 20px;&quot;&gt;&lt;b&gt;统计量-2-2&lt;/b&gt;&lt;/font&gt;&lt;br&gt;提款金额的统计指标：&lt;br&gt;&lt;blockquote style=&quot;margin: 0 0 0 40px; border: none; padding: 0px;&quot;&gt;&lt;span style=&quot;background-color: rgb(43, 43, 43);&quot;&gt;每年的平均季度提款金额 = 季度提款金额/季度个数&lt;br&gt;&lt;/span&gt;&lt;span style=&quot;background-color: rgb(43, 43, 43);&quot;&gt;每年的平均月度提款金额&lt;br&gt;&lt;/span&gt;&lt;span style=&quot;background-color: rgb(43, 43, 43);&quot;&gt;每年的平均周度提款金额&lt;/span&gt;&lt;/blockquote&gt;&lt;blockquote style=&quot;margin: 0 0 0 40px; border: none; padding: 0px;&quot;&gt;每年的平均天度提款金额&lt;span style=&quot;background-color: rgb(43, 43, 43);&quot;&gt;&lt;br&gt;&lt;/span&gt;&lt;/blockquote&gt;&lt;blockquote style=&quot;margin: 0 0 0 40px; border: none; padding: 0px;&quot;&gt;&lt;span style=&quot;background-color: rgb(43, 43, 43);&quot;&gt;&lt;br&gt;&lt;/span&gt;&lt;/blockquote&gt;&lt;blockquote style=&quot;margin: 0 0 0 40px; border: none; padding: 0px;&quot;&gt;每年的平均季度平均提款金额 = 季度平均提款金额/季度个数&lt;br&gt;每年的平均月度平均提款金额&lt;br&gt;每年的平均周度平均提款金额&lt;/blockquote&gt;&lt;blockquote style=&quot;margin: 0 0 0 40px; border: none; padding: 0px;&quot;&gt;每年的平均天度平均提款金额&lt;br&gt;&lt;/blockquote&gt;&lt;blockquote style=&quot;margin: 0 0 0 40px; border: none; padding: 0px;&quot;&gt;&lt;br&gt;&lt;/blockquote&gt;&lt;blockquote style=&quot;margin: 0 0 0 40px; border: none; padding: 0px;&quot;&gt;每年的平均季度人产 = 季度人产/季度个数&lt;br&gt;每年的平均月度人产&amp;nbsp;&lt;br&gt;每年的平均周度人产&lt;/blockquote&gt;&lt;blockquote style=&quot;margin: 0 0 0 40px; border: none; padding: 0px;&quot;&gt;每年的平均天度人产&lt;br&gt;&lt;/blockquote&gt;&lt;blockquote style=&quot;margin: 0 0 0 40px; border: none; padding: 0px;&quot;&gt;...&lt;/blockquote&gt;&lt;blockquote style=&quot;margin: 0 0 0 40px; border: none; padding: 0px;&quot;&gt;&lt;br&gt;&lt;/blockquote&gt;" style="text;html=1;align=left;verticalAlign=middle;resizable=0;points=[];autosize=1;strokeColor=none;fillColor=none;fontSize=14;" vertex="1" parent="85">
                    <mxGeometry x="20" y="35" width="430" height="450" as="geometry"/>
                </mxCell>
                <mxCell id="90" value="compare" style="swimlane;whiteSpace=wrap;html=1;fontSize=20;" vertex="1" parent="22">
                    <mxGeometry x="30" y="1240" width="1480" height="730" as="geometry"/>
                </mxCell>
                <mxCell id="91" value="环比" style="swimlane;horizontal=0;whiteSpace=wrap;html=1;fontSize=20;" vertex="1" parent="90">
                    <mxGeometry x="160" y="65" width="757.5" height="270" as="geometry"/>
                </mxCell>
                <mxCell id="95" value="&lt;span style=&quot;&quot;&gt;&lt;font style=&quot;font-size: 12px;&quot;&gt;环比=（s_{i}-s_{i-1}）/s_{i-1}* 100%&lt;/font&gt;&lt;/span&gt;" style="whiteSpace=wrap;html=1;fontSize=20;rounded=1;" vertex="1" parent="91">
                    <mxGeometry x="197.5" y="200" width="120" height="60" as="geometry"/>
                </mxCell>
                <mxCell id="99" value="statistic" style="swimlane;fontStyle=0;childLayout=stackLayout;horizontal=1;startSize=30;horizontalStack=0;resizeParent=1;resizeParentMax=0;resizeLast=0;collapsible=1;marginBottom=0;whiteSpace=wrap;html=1;" vertex="1" parent="91">
                    <mxGeometry x="297.5" y="20" width="180" height="70" as="geometry"/>
                </mxCell>
                <mxCell id="103" value="" style="endArrow=classic;html=1;fontSize=12;exitX=0.5;exitY=1;exitDx=0;exitDy=0;entryX=0.5;entryY=0;entryDx=0;entryDy=0;" edge="1" parent="91" source="99" target="95">
                    <mxGeometry relative="1" as="geometry">
                        <mxPoint x="427.5" y="310" as="sourcePoint"/>
                        <mxPoint x="527.5" y="310" as="targetPoint"/>
                    </mxGeometry>
                </mxCell>
                <mxCell id="104" value="如果期数&amp;gt;=2" style="edgeLabel;resizable=0;html=1;align=center;verticalAlign=middle;fontSize=12;" connectable="0" vertex="1" parent="103">
                    <mxGeometry relative="1" as="geometry"/>
                </mxCell>
                <mxCell id="105" value="&lt;span style=&quot;font-size: 12px;&quot;&gt;异常，不可计算环比&lt;/span&gt;" style="whiteSpace=wrap;html=1;fontSize=20;rounded=1;" vertex="1" parent="91">
                    <mxGeometry x="497.5" y="200" width="120" height="60" as="geometry"/>
                </mxCell>
                <mxCell id="106" value="" style="endArrow=classic;html=1;fontSize=12;exitX=0.5;exitY=1;exitDx=0;exitDy=0;entryX=0.5;entryY=0;entryDx=0;entryDy=0;" edge="1" parent="91" source="99" target="105">
                    <mxGeometry relative="1" as="geometry">
                        <mxPoint x="397.5" y="100" as="sourcePoint"/>
                        <mxPoint x="267.5" y="210" as="targetPoint"/>
                    </mxGeometry>
                </mxCell>
                <mxCell id="107" value="如果期数&amp;lt;2" style="edgeLabel;resizable=0;html=1;align=center;verticalAlign=middle;fontSize=12;" connectable="0" vertex="1" parent="106">
                    <mxGeometry relative="1" as="geometry"/>
                </mxCell>
                <mxCell id="108" value="同比" style="swimlane;horizontal=0;whiteSpace=wrap;html=1;fontSize=20;" vertex="1" parent="90">
                    <mxGeometry x="160" y="395" width="757.5" height="270" as="geometry"/>
                </mxCell>
                <mxCell id="109" value="&lt;span style=&quot;&quot;&gt;&lt;font style=&quot;font-size: 12px;&quot;&gt;同比=（s_{i, j}-s_{i-1, j}）/s_{i-1, j} * 100%&lt;/font&gt;&lt;/span&gt;" style="whiteSpace=wrap;html=1;fontSize=20;rounded=1;" vertex="1" parent="108">
                    <mxGeometry x="197.5" y="200" width="120" height="60" as="geometry"/>
                </mxCell>
                <mxCell id="110" value="statistic" style="swimlane;fontStyle=0;childLayout=stackLayout;horizontal=1;startSize=30;horizontalStack=0;resizeParent=1;resizeParentMax=0;resizeLast=0;collapsible=1;marginBottom=0;whiteSpace=wrap;html=1;" vertex="1" parent="108">
                    <mxGeometry x="297.5" y="20" width="180" height="70" as="geometry"/>
                </mxCell>
                <mxCell id="127" value="&lt;font style=&quot;font-size: 16px;&quot;&gt;统计历史同期数据&lt;/font&gt;" style="text;html=1;align=center;verticalAlign=middle;resizable=0;points=[];autosize=1;strokeColor=none;fillColor=none;fontSize=18;fontColor=#f0f0f0;" vertex="1" parent="110">
                    <mxGeometry y="30" width="180" height="40" as="geometry"/>
                </mxCell>
                <mxCell id="111" value="" style="endArrow=classic;html=1;fontSize=12;exitX=0.5;exitY=1;exitDx=0;exitDy=0;entryX=0.5;entryY=0;entryDx=0;entryDy=0;" edge="1" parent="108" source="110" target="109">
                    <mxGeometry relative="1" as="geometry">
                        <mxPoint x="427.5" y="310" as="sourcePoint"/>
                        <mxPoint x="527.5" y="310" as="targetPoint"/>
                    </mxGeometry>
                </mxCell>
                <mxCell id="112" value="如果第一层期数&amp;gt;=2&lt;br&gt;且第二层期数相同的个数&amp;gt;1" style="edgeLabel;resizable=0;html=1;align=center;verticalAlign=middle;fontSize=12;" connectable="0" vertex="1" parent="111">
                    <mxGeometry relative="1" as="geometry"/>
                </mxCell>
                <mxCell id="113" value="&lt;span style=&quot;font-size: 12px;&quot;&gt;异常，不可计算同比&lt;/span&gt;" style="whiteSpace=wrap;html=1;fontSize=20;rounded=1;" vertex="1" parent="108">
                    <mxGeometry x="497.5" y="200" width="120" height="60" as="geometry"/>
                </mxCell>
                <mxCell id="114" value="" style="endArrow=classic;html=1;fontSize=12;exitX=0.5;exitY=1;exitDx=0;exitDy=0;entryX=0.5;entryY=0;entryDx=0;entryDy=0;" edge="1" parent="108" source="110" target="113">
                    <mxGeometry relative="1" as="geometry">
                        <mxPoint x="397.5" y="100" as="sourcePoint"/>
                        <mxPoint x="267.5" y="210" as="targetPoint"/>
                    </mxGeometry>
                </mxCell>
                <mxCell id="115" value="其他情况" style="edgeLabel;resizable=0;html=1;align=center;verticalAlign=middle;fontSize=12;" connectable="0" vertex="1" parent="114">
                    <mxGeometry relative="1" as="geometry"/>
                </mxCell>
                <mxCell id="125" value="issue" style="swimlane;whiteSpace=wrap;html=1;fontSize=20;fontColor=#f0f0f0;" vertex="1" parent="22">
                    <mxGeometry x="990" y="60" width="715" height="590" as="geometry"/>
                </mxCell>
                <mxCell id="126" value="&lt;font style=&quot;font-size: 18px;&quot;&gt;&lt;div style=&quot;color: rgb(204, 204, 204); background-color: rgb(31, 31, 31); font-family: Consolas, &amp;quot;Courier New&amp;quot;, monospace; font-size: 14px; line-height: 19px;&quot;&gt;&lt;/div&gt;Approximation issue&lt;br&gt;例子：统计动作区间是[2023-08-15, 2024-10-10]，&lt;br&gt;如果按照月进行统计，对于8，10月份月份未满&lt;br&gt;如何统计呢？&lt;br&gt;&lt;br&gt;soluation:&lt;br&gt;对period未满的进行估计；&lt;br&gt;怎么估算S_2_1统计量，比如：sum, count, 百产，人产，户数提款率？&lt;br&gt;&lt;/font&gt;&lt;blockquote style=&quot;margin: 0px 0px 0px 40px; border: none; padding: 0px; font-size: 18px;&quot;&gt;&lt;font style=&quot;font-size: 18px;&quot;&gt;确定哪一个月未满；&lt;/font&gt;&lt;/blockquote&gt;&lt;blockquote style=&quot;margin: 0px 0px 0px 40px; border: none; padding: 0px; font-size: 18px;&quot;&gt;&lt;font style=&quot;font-size: 18px;&quot;&gt;未满月份计算乘数因子，factor = 30/当月已有天数&lt;/font&gt;&lt;/blockquote&gt;&lt;blockquote style=&quot;margin: 0px 0px 0px 40px; border: none; padding: 0px; font-size: 18px;&quot;&gt;&lt;font style=&quot;font-size: 18px;&quot;&gt;估计统计量 = 统计量*factor&lt;/font&gt;&lt;/blockquote&gt;&lt;font style=&quot;font-size: 18px;&quot;&gt;不同的period粒度进行估算：&lt;br&gt;&lt;blockquote style=&quot;margin: 0 0 0 40px; border: none; padding: 0px;&quot;&gt;&lt;font style=&quot;font-size: 18px;&quot;&gt;（day, week) （day, month) (day, season) (day, year)&lt;/font&gt;&lt;/blockquote&gt;&lt;blockquote style=&quot;margin: 0 0 0 40px; border: none; padding: 0px;&quot;&gt;对应的是current_date在本周的第几天，月的第几天，季度第几天，年的第几天&lt;/blockquote&gt;&lt;font style=&quot;font-size: 18px;&quot;&gt;&lt;br&gt;怎么估算S_2_2统计量，比如：sum, count, ...?&lt;br&gt;&lt;/font&gt;&lt;/font&gt;&lt;blockquote style=&quot;margin: 0 0 0 40px; border: none; padding: 0px;&quot;&gt;&lt;font style=&quot;font-size: 18px;&quot;&gt;&lt;font style=&quot;font-size: 18px;&quot;&gt;需要分周期组合情况看：&lt;/font&gt;&lt;/font&gt;&lt;/blockquote&gt;&lt;blockquote style=&quot;margin: 0 0 0 40px; border: none; padding: 0px;&quot;&gt;&lt;font style=&quot;font-size: 18px;&quot;&gt;&lt;font style=&quot;font-size: 18px;&quot;&gt;（day, ...）不需要进行估算&lt;/font&gt;&lt;/font&gt;&lt;/blockquote&gt;&lt;blockquote style=&quot;margin: 0 0 0 40px; border: none; padding: 0px;&quot;&gt;&lt;font style=&quot;font-size: 18px;&quot;&gt;&lt;font style=&quot;font-size: 18px;&quot;&gt;（week, ...) 不需要进行估算，因为week已经在S_2_1估算过&lt;/font&gt;&lt;/font&gt;&lt;/blockquote&gt;&lt;blockquote style=&quot;margin: 0 0 0 40px; border: none; padding: 0px;&quot;&gt;&lt;span style=&quot;font-size: 18px;&quot;&gt;...&lt;/span&gt;&lt;/blockquote&gt;&lt;blockquote style=&quot;margin: 0 0 0 40px; border: none; padding: 0px;&quot;&gt;&lt;span style=&quot;font-size: 18px;&quot;&gt;==&amp;gt; 对于S_2_2不需要进行估算&lt;/span&gt;&lt;/blockquote&gt;&lt;font style=&quot;font-size: 18px;&quot;&gt;&lt;font style=&quot;font-size: 18px;&quot;&gt;&lt;br&gt;&lt;/font&gt;&lt;/font&gt;" style="text;html=1;align=left;verticalAlign=middle;resizable=0;points=[];autosize=1;strokeColor=none;fillColor=none;fontSize=20;fontColor=#f0f0f0;" vertex="1" parent="125">
                    <mxGeometry x="25" y="25" width="690" height="540" as="geometry"/>
                </mxCell>
                <mxCell id="119" value="&lt;font style=&quot;font-size: 20px;&quot;&gt;Representation&lt;/font&gt;" style="swimlane;whiteSpace=wrap;html=1;fontSize=12;" vertex="1" parent="1">
                    <mxGeometry x="1010" y="710" width="1320" height="870" as="geometry"/>
                </mxCell>
                <mxCell id="120" value="&lt;div style=&quot;line-height: 135%;&quot;&gt;&lt;div style=&quot;line-height: 135%;&quot;&gt;按需计算，根据需要画的图形，计算对应的数据；&lt;/div&gt;&lt;div style=&quot;line-height: 135%;&quot;&gt;展示的时间范围可调整；&lt;/div&gt;&lt;div style=&quot;line-height: 135%;&quot;&gt;图形的类型进行分类，现有趋势图和对比图；&lt;/div&gt;&lt;/div&gt;" style="text;html=1;align=left;verticalAlign=middle;resizable=0;points=[];autosize=1;strokeColor=none;fillColor=none;fontSize=20;" vertex="1" parent="119">
                    <mxGeometry x="450" y="80" width="460" height="90" as="geometry"/>
                </mxCell>
                <mxCell id="121" value="使用观察者模式，实现按需求进行数据计算" style="rounded=1;whiteSpace=wrap;html=1;fontSize=20;fontColor=#f0f0f0;align=left;" vertex="1" parent="119">
                    <mxGeometry x="40" y="280" width="210" height="110" as="geometry"/>
                </mxCell>
                <mxCell id="122" value="在数据进入统计前，根据配置的时间范围进行过滤" style="rounded=1;whiteSpace=wrap;html=1;fontSize=20;fontColor=#f0f0f0;align=left;" vertex="1" parent="119">
                    <mxGeometry x="300" y="280" width="210" height="110" as="geometry"/>
                </mxCell>
                <mxCell id="123" value="趋势图" style="rounded=1;whiteSpace=wrap;html=1;fontSize=20;fontColor=#f0f0f0;align=left;" vertex="1" parent="119">
                    <mxGeometry x="580" y="280" width="210" height="110" as="geometry"/>
                </mxCell>
                <mxCell id="129" value="对比图" style="swimlane;whiteSpace=wrap;html=1;fontSize=16;fontColor=#f0f0f0;" vertex="1" parent="119">
                    <mxGeometry x="840" y="290" width="400" height="350" as="geometry"/>
                </mxCell>
                <mxCell id="130" value="子图1：（现在数据，对比数据）趋势展示" style="rounded=1;whiteSpace=wrap;html=1;fontSize=20;fontColor=#f0f0f0;align=left;" vertex="1" parent="129">
                    <mxGeometry x="80" y="50" width="210" height="110" as="geometry"/>
                </mxCell>
                <mxCell id="131" value="子图2：变化率数据展示" style="rounded=1;whiteSpace=wrap;html=1;fontSize=20;fontColor=#f0f0f0;align=left;" vertex="1" parent="129">
                    <mxGeometry x="80" y="210" width="210" height="110" as="geometry"/>
                </mxCell>
            </root>
        </mxGraphModel>
    </diagram>
</mxfile>